<svg width="396" height="257.63992141178335" viewBox="0 0 350.00000000000006 227.71205175283885" class="css-1j8o68f"><defs id="SvgjsDefs1019"><linearGradient id="SvgjsLinearGradient1026"><stop id="SvgjsStop1027" stop-color="#7f00ff" offset="0"></stop><stop id="SvgjsStop1028" stop-color="#e100ff" offset="1"></stop></linearGradient><linearGradient id="SvgjsLinearGradient1029"><stop id="SvgjsStop1030" stop-color="#7f00ff" offset="0"></stop><stop id="SvgjsStop1031" stop-color="#e100ff" offset="1"></stop></linearGradient></defs><g id="SvgjsG1020" featurekey="JjiT9w-0" transform="matrix(0.18237117833171906,0,0,0.18237117833171906,83.8120649646438,-20.662655061536437)" fill="url(#SvgjsLinearGradient1026)"><g xmlns="http://www.w3.org/2000/svg"><g><path d="M669.6,164.4c18.6-4.6,30.4,6.1,40.4,25.1c16.9,32.3,36.1,63.5,54.9,94.9c7,11.6,7.8,21.6,0.6,33.8    c-36,61.2-71.4,122.6-106.6,184.2c-7.9,13.9-11.8,13-21.7,0.3c-21.6-27.7-20.6-51.5-0.4-80.5c23.7-34,41.8-71.8,63.1-107.5    c6-10.1,5.4-17.8-0.4-27.5c-19.5-32.6-38.5-65.5-57.1-98.6c-12.5-22.3-11.3-23.9,15.2-24.1C660.3,164.4,663.2,164.4,669.6,164.4z"></path></g><g><path d="M875.2,477.6c13.3,13.7,10,29.4-1.4,47.5c-19.4,30.9-36.7,63.2-54.3,95.2c-6.5,11.8-14.8,17.6-28.9,17.6    c-70.9-0.3-141.9,0-212.8,0.6c-16,0.1-17.2-3.6-11.2-18.7c13.1-32.6,34.2-43.7,69.3-40.9c41.3,3.4,83.1-0.1,124.6,0.4    c11.7,0.1,18.1-4.2,23.6-14.2c18.3-33.3,37.2-66.2,56.5-99c13-22.1,15-21.8,28.5,1C870.6,469.6,872,472,875.2,477.6z"></path></g><g><path d="M708.1,812.8c-5.1,18.4-20.4,23.5-41.7,22.7c-36.5-1.2-73.1,0.1-109.6,1c-13.5,0.3-22.6-3.9-29.7-16.1    c-35.5-61.4-71.5-122.6-107.7-183.6c-8.2-13.8-5.5-16.7,10.5-19c34.8-5.1,55,7.5,70.2,39.3C518,694.5,542,728.9,562.5,765    c5.8,10.2,12.8,13.5,24.2,13.2c38-0.9,76-1.2,113.9-1c25.6,0.1,26.3,2,13.5,25.1C712.7,804.8,711.3,807.3,708.1,812.8z"></path></g><g><path d="M334.4,837.3c-18.5,4.8-30.5-5.8-40.6-24.6c-17.3-32.1-36.9-63.1-56-94.2c-7.1-11.5-8-21.5-1-33.8    c35.2-61.6,69.9-123.5,104.4-185.5c7.8-14,11.6-13.2,21.7-0.5c21.9,27.5,21.2,51.3,1.4,80.5c-23.3,34.3-40.9,72.3-61.8,108.2    c-5.9,10.2-5.2,17.9,0.7,27.5c19.9,32.3,39.2,65,58.3,97.9c12.8,22.2,11.6,23.8-14.9,24.3C343.6,837.2,340.7,837.2,334.4,837.3z"></path></g><g><path d="M125.1,526.6c-13.5-13.6-10.4-29.3,0.8-47.5c19.1-31.1,36-63.6,53.2-95.9c6.4-11.9,14.5-17.8,28.7-17.9    c70.9-0.5,141.9-1.7,212.8-3.1c16-0.3,17.2,3.4,11.4,18.5c-12.7,32.8-33.6,44.1-68.8,41.7c-41.3-2.9-83.1,1-124.6,1.1    c-11.7,0-18.1,4.5-23.4,14.5c-17.9,33.5-36.4,66.7-55.3,99.6c-12.7,22.2-14.7,21.9-28.5-0.6C129.8,534.6,128.3,532.1,125.1,526.6z    "></path></g><g><path d="M288.1,189.4c4.9-18.5,20.1-23.7,41.4-23.2c36.5,0.8,73.1-1,109.6-2.3c13.5-0.5,22.7,3.6,29.9,15.8    c36.2,61,72.9,121.7,109.9,182.3c8.3,13.7,5.7,16.6-10.3,19.2c-34.7,5.5-55.1-6.9-70.7-38.5c-18.3-37.1-42.7-71.2-63.7-107.1    c-5.9-10.1-12.9-13.4-24.3-13c-38,1.4-75.9,2.1-113.9,2.4c-25.6,0.2-26.4-1.7-13.8-24.9C283.6,197.5,285,195,288.1,189.4z"></path></g><path d="M406.4,273c-41.2,0.2-82.4,1.8-123.6,1.9c-9.2-15.7-26.4-26.3-45.9-26.3c-29.4,0-53.3,23.9-53.3,53.3   s23.9,53.3,53.3,53.3c18.4,0,34.6-9.3,44.2-23.5c28-1.1,56.1-2.5,83.9-0.4c29.3,2.2,42.8-12.5,54.7-34.2   C430.2,277.6,428.2,272.9,406.4,273z M236.9,329.8c-2.6,0-5.2-0.4-7.6-1c-11.7-3.3-20.3-14.1-20.3-26.9c0-15.4,12.5-27.9,27.9-27.9   c4.6,0,9,1.1,12.9,3.1c8.9,4.7,15,14,15,24.8C264.8,317.3,252.3,329.8,236.9,329.8z"></path><path d="M284.3,467.2c-11.4-18.9-16.6-19.6-27.4-0.7c-22.2,38.5-42.9,77.8-65.4,116.1c-0.4,0.7-0.8,1.4-1.2,2   c-28.6,0.8-51.7,24.4-51.7,53.2c0,29.4,23.9,53.3,53.3,53.3s53.3-23.9,53.3-53.3c0-8.6-2.1-16.8-5.7-24c15-27.8,29.1-56.2,47-82.1   C303,507.5,297,488.4,284.3,467.2z M218.3,646.6c-3.7,11.1-14.2,19.2-26.5,19.2c-15.4,0-27.9-12.5-27.9-27.9c0-11.5,7-21.5,17-25.7   c3.3-1.4,7-2.2,10.9-2.2c15.4,0,27.9,12.5,27.9,27.9C219.7,640.9,219.2,643.8,218.3,646.6z"></path><path d="M653.5,308.4c-20.7-37.2-42.8-73.6-63.3-110.9c6.3-8.7,9.9-19.4,9.9-30.9c0-29.4-23.9-53.3-53.3-53.3   s-53.3,23.9-53.3,53.3c0,25.9,18.6,47.6,43.2,52.3c16,26.8,32.8,53.1,45.6,81.3c12.2,26.8,31.6,31.5,56.4,31.4   C660.9,331.5,664.1,327.4,653.5,308.4z M574,173c-2.9,12.3-14,21.5-27.2,21.5c-11.9,0-22.2-7.6-26.1-18.1c-1.1-3-1.8-6.3-1.8-9.8   c0-15.4,12.5-27.9,27.9-27.9c15.4,0,27.9,12.5,27.9,27.9C574.8,168.8,574.5,170.9,574,173z"></path><path d="M812.9,317.4c-29.4,0-53.3,23.9-53.3,53.3c0,6.1,1,11.9,2.9,17.3v0c-15.6,28-30.2,56.6-48.5,82.6   c-17,24-11.3,43.2,1.2,64.5c11.2,19.1,16.4,19.8,27.4,1.1c22.1-37.3,42.8-75.4,65.1-112.5c1.7,0.2,3.4,0.2,5.1,0.2   c29.4,0,53.3-23.9,53.3-53.3S842.3,317.4,812.9,317.4z M820,397.6c-2.3,0.6-4.6,0.9-7.1,0.9c-15.4,0-27.9-12.5-27.9-27.9   c0-5.8,1.8-11.2,4.9-15.7c5-7.4,13.5-12.2,23-12.2c15.4,0,27.9,12.5,27.9,27.9C840.8,383.6,832,394.5,820,397.6z"></path><path d="M769.4,649.7c-17.1,0-32.4,8.2-42.2,20.8c-31.5,0.7-63,2.4-94.2-0.4c-29.3-2.6-43,12-55.1,33.5   c-10.8,19.3-8.9,24.1,12.9,24.2c43.8,0.3,87.6-1,131.4-0.4c8.9,17,26.7,28.7,47.2,28.7c29.4,0,53.3-23.9,53.3-53.3   C822.7,673.6,798.8,649.7,769.4,649.7z M769.4,730.8c-6.9,0-13.2-2.5-18.1-6.7c-6-5.1-9.8-12.7-9.8-21.2   c0-15.4,12.5-27.9,27.9-27.9h0.1c15.4,0,27.9,12.5,27.9,27.9C797.3,718.3,784.8,730.8,769.4,730.8z"></path><path d="M466.3,780.9c-16.2-26.4-33.3-52.5-46.4-80.4c-12.5-26.6-32-31.1-56.7-30.7c-22.1,0.3-25.3,4.5-14.5,23.3   c21.1,36.9,43.6,73,64.5,109.9c-6,8.6-9.5,19.1-9.5,30.3c0,29.4,23.9,53.3,53.3,53.3s53.3-23.9,53.3-53.3   C510.3,807.2,491.2,785.4,466.3,780.9z M457,861.3c-15.4,0-27.9-12.5-27.9-27.9c0-2,0.2-4,0.6-5.9c2.7-12.6,13.9-22.1,27.3-22.1   c11.9,0,22.1,7.5,26.1,18v0c1.1,3.1,1.8,6.4,1.8,9.9C484.9,848.8,472.4,861.3,457,861.3z"></path></g></g><g id="SvgjsG1021" featurekey="j7RXiA-0" transform="matrix(3.0567687626313966,0,0,3.0567687626313966,-1.8340669785839885,143.20959653127056)" fill="#ffffff"><path d="M5.02 18.12 q1.36 0 1.98 -0.46 t0.62 -1.3 q0 -0.5 -0.21 -0.86 t-0.6 -0.65 t-0.95 -0.54 t-1.28 -0.49 q-0.72 -0.26 -1.39 -0.57 t-1.18 -0.77 t-0.82 -1.1 t-0.31 -1.54 q0 -1.88 1.3 -2.95 t3.54 -1.07 q1.3 0 2.31 0.29 t1.59 0.63 l-0.78 2.04 q-0.68 -0.38 -1.49 -0.58 t-1.67 -0.2 q-1.02 0 -1.59 0.42 t-0.57 1.18 q0 0.46 0.19 0.79 t0.54 0.59 t0.82 0.48 t1.03 0.42 q0.98 0.36 1.75 0.73 t1.3 0.88 t0.81 1.2 t0.28 1.67 q0 1.88 -1.33 2.91 t-3.89 1.03 q-0.86 0 -1.57 -0.11 t-1.26 -0.27 t-0.95 -0.33 t-0.64 -0.31 l0.74 -2.06 q0.54 0.3 1.46 0.6 t2.22 0.3 z M12.46 20 l0 -13.86 l8.9 0 l0 2.14 l-6.38 0 l0 3.42 l5.68 0 l0 2.1 l-5.68 0 l0 4.06 l6.86 0 l0 2.14 l-9.38 0 z M33.52 20 q-0.68 -1.14 -1.52 -2.45 t-1.74 -2.64 t-1.83 -2.58 t-1.77 -2.25 l0 9.92 l-2.48 0 l0 -13.86 l2.06 0 q0.8 0.84 1.72 1.99 t1.85 2.39 t1.8 2.49 t1.55 2.33 l0 -9.2 l2.5 0 l0 13.86 l-2.14 0 z M48.64000000000001 6.140000000000001 l0 2.18 l-4.26 0 l0 11.68 l-2.54 0 l0 -11.68 l-4.26 0 l0 -2.18 l11.06 0 z M54.38000000000001 6 q3 0 4.59 1.1 t1.59 3.36 q0 2.82 -2.78 3.82 q0.38 0.46 0.86 1.12 t0.98 1.43 t0.96 1.58 t0.82 1.59 l-2.82 0 q-0.38 -0.72 -0.82 -1.45 t-0.89 -1.42 t-0.89 -1.3 t-0.82 -1.09 q-0.28 0.02 -0.48 0.02 l-0.38 0 l-1.22 0 l0 5.24 l-2.52 0 l0 -13.66 q0.92 -0.2 1.96 -0.27 t1.86 -0.07 z M54.56 8.18 q-0.8 0 -1.48 0.06 l0 4.48 l1.1 0 q0.92 0 1.62 -0.1 t1.17 -0.36 t0.71 -0.7 t0.24 -1.12 q0 -0.64 -0.24 -1.08 t-0.69 -0.7 t-1.07 -0.37 t-1.36 -0.11 z M68.02000000000001 12.280000000000001 q0.9 -1.5 1.76 -3.04 t1.56 -3.1 l2.8 0 q-1.12 2.12 -2.33 4.21 t-2.59 4.21 l0 5.44 l-2.52 0 l0 -5.4 q-1.38 -2.14 -2.6 -4.24 t-2.34 -4.22 l2.96 0 q0.7 1.56 1.54 3.1 t1.76 3.04 z M84.4 6.140000000000001 l2.52 0 l0 13.86 l-2.52 0 l0 -6.14 l-6.02 0 l0 6.14 l-2.52 0 l0 -13.86 l2.52 0 l0 5.54 l6.02 0 l0 -5.54 z M99.44 20 q-0.28 -0.82 -0.58 -1.62 t-0.58 -1.64 l-5.84 0 q-0.28 0.84 -0.57 1.65 t-0.57 1.61 l-2.62 0 q0.78 -2.22 1.48 -4.1 t1.37 -3.56 t1.33 -3.2 t1.36 -3 l2.38 0 q0.7 1.48 1.36 3 t1.33 3.2 t1.38 3.56 t1.49 4.1 l-2.72 0 z M95.36 8.82 q-0.46 1.06 -1.05 2.58 t-1.23 3.3 l4.56 0 q-0.64 -1.78 -1.24 -3.32 t-1.04 -2.56 z M112.13999999999999 20 q-0.58 -1.18 -1.46 -2.6 t-1.84 -2.74 q-0.4 0.52 -0.87 1.24 t-0.94 1.47 t-0.87 1.45 t-0.64 1.18 l-2.86 0 q0.9 -1.7 2.08 -3.49 t2.56 -3.75 l-4.44 -6.62 l3 0 l3.06 4.74 l3.02 -4.74 l2.88 0 l-4.38 6.6 q1.52 2.06 2.69 3.9 t1.97 3.36 l-2.96 0 z"></path></g><g id="SvgjsG1022" featurekey="XxmBkf-0" transform="matrix(0.8543044372053129,0,0,0.8543044372053129,33.34264924109698,210.31841288991262)" fill="url(#SvgjsLinearGradient1029)"><path d="M10.42 5.84 l0 1.2 l-7.16 0 l0 5.04 l6.66 0 l0 1.2 l-6.66 0 l0 6.72 l-1.32 0 l0 -14.16 l8.48 0 z M17.936 5.84 l0 14.16 l-1.32 0 l0 -14.16 l1.32 0 z M29.592000000000002 12.08 q1.54 0 2.38 -0.69 t0.84 -1.83 t-0.82 -1.82 t-2.44 -0.7 l-2.86 0 l0 5.04 l2.9 0 z M29.192 5.84 q4.9 0 4.94 3.72 q0 3.14 -3.62 3.64 l4.12 6.8 l-1.5 0 l-3.98 -6.72 l-2.46 0 l0 6.72 l-1.32 0 l0 -14.16 l3.82 0 z M44.828 5.48 q2.46 0 3.86 1.78 l-1.14 0.82 q-1.04 -1.4 -2.76 -1.4 q-1.4 0 -2.27 0.72 t-0.91 1.96 q0 1.08 0.66 1.75 t2.3 1.13 q2.16 0.64 2.88 1.13 t1.09 1.21 t0.37 1.8 q0 1.72 -1.23 2.83 t-3.17 1.15 q-3.06 0 -4.6 -2.14 l1.26 -0.84 q1.06 1.76 3.24 1.78 q1.42 0 2.3 -0.79 t0.88 -1.99 q0 -0.7 -0.25 -1.15 t-0.76 -0.78 t-1.3 -0.6 t-1.85 -0.63 q-1.6 -0.52 -2.37 -1.46 t-0.77 -2.4 q0 -1.72 1.29 -2.8 t3.25 -1.08 z M64.764 5.84 l0 1.2 l-4.84 0 l0 12.96 l-1.32 0 l0 -12.96 l-4.84 0 l0 -1.2 l11 0 z M87.916 5.84 l0 1.2 l-7.34 0 l0 5.04 l6.88 0 l0 1.2 l-6.88 0 l0 5.52 l7.66 0 l0 1.2 l-8.98 0 l0 -14.16 l8.66 0 z M94.192 5.84 l4.28 6.72 l4.38 -6.72 l1.48 0 l-5.2 8.06 l0 6.1 l-1.32 0 l0 -6.1 l-5.2 -8.06 l1.58 0 z M118.368 5.84 l0 1.2 l-7.34 0 l0 5.04 l6.88 0 l0 1.2 l-6.88 0 l0 5.52 l7.66 0 l0 1.2 l-8.98 0 l0 -14.16 l8.66 0 z M129.164 5.48 q2.46 0 3.86 1.78 l-1.14 0.82 q-1.04 -1.4 -2.76 -1.4 q-1.4 0 -2.27 0.72 t-0.91 1.96 q0 1.08 0.66 1.75 t2.3 1.13 q2.16 0.64 2.88 1.13 t1.09 1.21 t0.37 1.8 q0 1.72 -1.23 2.83 t-3.17 1.15 q-3.06 0 -4.6 -2.14 l1.26 -0.84 q1.06 1.76 3.24 1.78 q1.42 0 2.3 -0.79 t0.88 -1.99 q0 -0.7 -0.25 -1.15 t-0.76 -0.78 t-1.3 -0.6 t-1.85 -0.63 q-1.6 -0.52 -2.37 -1.46 t-0.77 -2.4 q0 -1.72 1.29 -2.8 t3.25 -1.08 z M148.95600000000002 12.92 q0 2.7 1.66 4.45 t4.34 1.79 q2.7 0 4.34 -1.77 t1.66 -4.47 q0 -2.74 -1.64 -4.47 t-4.38 -1.77 q-2.68 0 -4.32 1.76 t-1.66 4.48 z M154.95600000000002 5.48 q2.16 0 3.82 0.95 t2.57 2.66 t0.93 3.83 q0 3.26 -2.06 5.33 t-5.26 2.11 q-3.22 0 -5.24 -2.09 t-2.08 -5.35 q0.02 -3.26 2.04 -5.32 t5.28 -2.12 z M170.492 5.84 l8.62 12.4 l0.04 0 l0 -12.4 l1.32 0 l0 14.16 l-1.7 0 l-8.62 -12.4 l-0.04 0 l0 12.4 l-1.32 0 l0 -14.16 l1.7 0 z M205.96400000000003 5.84 l0 1.2 l-4.84 0 l0 12.96 l-1.32 0 l0 -12.96 l-4.84 0 l0 -1.2 l11 0 z M213.02 5.84 l0 6.24 l7.92 0 l0 -6.24 l1.32 0 l0 14.16 l-1.32 0 l0 -6.72 l-7.92 0 l0 6.72 l-1.32 0 l0 -14.16 l1.32 0 z M238.35600000000002 5.84 l0 1.2 l-7.34 0 l0 5.04 l6.88 0 l0 1.2 l-6.88 0 l0 5.52 l7.66 0 l0 1.2 l-8.98 0 l0 -14.16 l8.66 0 z M257.908 5.48 q2.46 0 3.86 1.78 l-1.14 0.82 q-1.04 -1.4 -2.76 -1.4 q-1.4 0 -2.27 0.72 t-0.91 1.96 q0 1.08 0.66 1.75 t2.3 1.13 q2.16 0.64 2.88 1.13 t1.09 1.21 t0.37 1.8 q0 1.72 -1.23 2.83 t-3.17 1.15 q-3.06 0 -4.6 -2.14 l1.26 -0.84 q1.06 1.76 3.24 1.78 q1.42 0 2.3 -0.79 t0.88 -1.99 q0 -0.7 -0.25 -1.15 t-0.76 -0.78 t-1.3 -0.6 t-1.85 -0.63 q-1.6 -0.52 -2.37 -1.46 t-0.77 -2.4 q0 -1.72 1.29 -2.8 t3.25 -1.08 z M274.944 5.48 q3.14 0 4.88 2.22 l-1.08 0.9 q-0.6 -0.9 -1.6 -1.41 t-2.2 -0.51 q-2.64 0 -4.3 1.74 t-1.7 4.5 q0 2.74 1.67 4.47 t4.33 1.77 q1.14 0 2.32 -0.57 t1.86 -1.63 l1.08 0.82 q-1.88 2.58 -5.26 2.58 q-3.28 -0.02 -5.27 -2.12 t-2.05 -5.32 q0 -3.26 2.05 -5.33 t5.27 -2.11 z M294.8400000000001 5.84 l0 1.2 l-7.34 0 l0 5.04 l6.88 0 l0 1.2 l-6.88 0 l0 5.52 l7.66 0 l0 1.2 l-8.98 0 l0 -14.16 l8.66 0 z M303.29600000000005 5.84 l8.62 12.4 l0.04 0 l0 -12.4 l1.32 0 l0 14.16 l-1.7 0 l-8.62 -12.4 l-0.04 0 l0 12.4 l-1.32 0 l0 -14.16 l1.7 0 z M329.37200000000007 5.84 l0 1.2 l-7.34 0 l0 5.04 l6.88 0 l0 1.2 l-6.88 0 l0 5.52 l7.66 0 l0 1.2 l-8.98 0 l0 -14.16 l8.66 0 z"></path></g></svg>